<svg xmlns="http://www.w3.org/2000/svg" width="640" height="640" viewBox="0 0 640 640" role="img" aria-labelledby="title desc">
  <title id="title">ox-jsdoc comment logo</title>
  <desc id="desc">A cyan and teal logo combining a JSDoc comment block and an asterisk mark.</desc>
  <defs>
    <linearGradient id="panel" x1="96" x2="542" y1="74" y2="566" gradientUnits="userSpaceOnUse">
      <stop stop-color="#22d3ee"/>
      <stop offset="0.48" stop-color="#14b8a6"/>
      <stop offset="1" stop-color="#0f766e"/>
    </linearGradient>
    <filter id="depth" x="40" y="40" width="560" height="560" color-interpolation-filters="sRGB" filterUnits="userSpaceOnUse">
      <feDropShadow dx="0" dy="24" stdDeviation="22" flood-color="#042f2e" flood-opacity="0.28"/>
    </filter>
  </defs>
  <rect width="448" height="448" x="96" y="96" fill="url(#panel)" filter="url(#depth)" rx="92"/>
  <path fill="#ffffff" fill-opacity="0.92" d="M184 205c0-17 14-31 31-31h210c17 0 31 14 31 31v230c0 17-14 31-31 31H215c-17 0-31-14-31-31V205Z"/>
  <path fill="#0f766e" d="M224 240h42v34h-42zM224 318h42v34h-42zM224 396h42v34h-42z"/>
  <path fill="#0891b2" d="M296 247h96c9 0 16 7 16 16s-7 16-16 16h-96c-9 0-16-7-16-16s7-16 16-16ZM296 325h72c9 0 16 7 16 16s-7 16-16 16h-72c-9 0-16-7-16-16s7-16 16-16ZM296 403h114c9 0 16 7 16 16s-7 16-16 16H296c-9 0-16-7-16-16s7-16 16-16Z"/>
  <path fill="#071113" d="M326 228c8 0 14 6 14 14v50l42-25c7-4 15-2 19 5s2 15-5 19l-42 25 42 25c7 4 9 12 5 19s-12 9-19 5l-42-25v50c0 8-6 14-14 14s-14-6-14-14v-50l-42 25c-7 4-15 2-19-5s-2-15 5-19l42-25-42-25c-7-4-9-12-5-19s12-9 19-5l42 25v-50c0-8 6-14 14-14Z"/>
</svg>
