<svg xmlns="http://www.w3.org/2000/svg" width="1200" height="630" viewBox="0 0 1200 630" role="img" aria-labelledby="title desc">
  <title id="title">ox-jsdoc logo card</title>
  <desc id="desc">A dark cyan social card for ox-jsdoc with a documentation asterisk logo.</desc>
  <defs>
    <radialGradient id="halo" cx="0" cy="0" r="1" gradientTransform="translate(920 120) rotate(132) scale(620 430)" gradientUnits="userSpaceOnUse">
      <stop stop-color="#22d3ee" stop-opacity="0.55"/>
      <stop offset="0.45" stop-color="#14b8a6" stop-opacity="0.25"/>
      <stop offset="1" stop-color="#061114" stop-opacity="0"/>
    </radialGradient>
    <linearGradient id="tile" x1="148" x2="444" y1="150" y2="478" gradientUnits="userSpaceOnUse">
      <stop stop-color="#22d3ee"/>
      <stop offset="0.52" stop-color="#14b8a6"/>
      <stop offset="1" stop-color="#0f766e"/>
    </linearGradient>
  </defs>
  <rect width="1200" height="630" fill="#071113"/>
  <rect width="1200" height="630" fill="url(#halo)"/>
  <path stroke="#164e63" stroke-opacity="0.7" stroke-width="2" d="M0 126h1200M0 504h1200M180 0v630M1020 0v630"/>
  <rect width="300" height="300" x="112" y="165" fill="url(#tile)" rx="66"/>
  <path fill="#ffffff" d="M262 214c14 0 25 11 25 25v64l54-32c12-7 27-3 34 9s3 27-9 34l-54 32 54 32c12 7 16 22 9 34s-22 16-34 9l-54-32v64c0 14-11 25-25 25s-25-11-25-25v-64l-54 32c-12 7-27 3-34-9s-3-27 9-34l54-32-54-32c-12-7-16-22-9-34s22-16 34-9l54 32v-64c0-14 11-25 25-25Z"/>
  <circle cx="262" cy="346" r="34" fill="url(#tile)"/>
  <text x="480" y="280" fill="#f8fafc" font-family="Montserrat, Arial Black, Helvetica Neue, sans-serif" font-size="104" font-weight="900" letter-spacing="-5">ox-jsdoc</text>
  <text x="486" y="346" fill="#67e8f9" font-family="IBM Plex Sans, Helvetica Neue, sans-serif" font-size="34" font-weight="700" letter-spacing="7">WASM PLAYGROUND</text>
  <text x="486" y="408" fill="#a8c0c2" font-family="IBM Plex Sans, Helvetica Neue, sans-serif" font-size="26" font-weight="600">High performance JSDoc parser powered by Rust and WebAssembly.</text>
</svg>
