<svg xmlns="http://www.w3.org/2000/svg" viewBox="0 0 1700 3000" font-family="'Helvetica Neue', Arial, sans-serif" font-size="12">
  <defs>
    <style>
      .title { font-size: 24px; font-weight: 700; fill: #1a1a2e; }
      .subtitle { font-size: 14px; fill: #667085; }
      .section-label { font-size: 18px; font-weight: 700; fill: #334155; }
      .section-line { stroke: #d0d7e2; stroke-width: 1; stroke-dasharray: 5 5; }
      .mono { font-family: 'Menlo', 'Consolas', monospace; }
      .addr { font-size: 10px; fill: #94a3b8; font-family: 'Menlo', 'Consolas', monospace; }
      .annotation { font-size: 11px; fill: #64748b; font-style: italic; }

      .source-box { fill: #f8fafc; stroke: #cbd5e1; stroke-width: 1.4; rx: 8; ry: 8; }
      .arena-bg { fill: #fcfcfd; stroke: #94a3b8; stroke-width: 2; rx: 12; ry: 12; }
      .detail-bg { fill: #ffffff; stroke: #cbd5e1; stroke-width: 1.2; rx: 10; ry: 10; }
      .note-box { fill: #fff8e1; stroke: #f59e0b; stroke-width: 1.2; rx: 8; ry: 8; }

      .node-root { fill: #1a1a2e; rx: 6; ry: 6; }
      .node-desc { fill: #e9f5ff; stroke: #3b82f6; stroke-width: 1.3; rx: 6; ry: 6; }
      .node-tag { fill: #fff4e6; stroke: #f59e0b; stroke-width: 1.3; rx: 6; ry: 6; }
      .node-type { fill: #f6ebff; stroke: #a855f7; stroke-width: 1.3; rx: 6; ry: 6; }
      .node-name { fill: #eefbf3; stroke: #22c55e; stroke-width: 1.3; rx: 6; ry: 6; }
      .node-inline { fill: #fde7f3; stroke: #ec4899; stroke-width: 1.3; rx: 6; ry: 6; }
      .node-vec { fill: #fffde8; stroke: #eab308; stroke-width: 1.3; rx: 6; ry: 6; }
      .node-raw { fill: #f8fafc; stroke: #64748b; stroke-width: 1.3; rx: 6; ry: 6; }

      .box-title-dark { fill: #ffffff; font-weight: 700; font-size: 12px; }
      .box-title { fill: #334155; font-weight: 700; font-size: 12px; }
      .field-name { fill: #475569; font-size: 11px; font-family: 'Menlo', 'Consolas', monospace; }
      .field-val { fill: #111827; font-size: 11px; font-family: 'Menlo', 'Consolas', monospace; }
      .small { font-size: 10px; }

      .ptr-box { stroke: #d92d20; stroke-width: 1.6; fill: none; }
      .ptr-vec { stroke: #2563eb; stroke-width: 1.8; fill: none; }
      .ptr-str { stroke: #16a34a; stroke-width: 1.4; fill: none; stroke-dasharray: 6 4; }
    </style>
    <marker id="arrow-red" markerWidth="8" markerHeight="6" refX="8" refY="3" orient="auto">
      <path d="M0,0 L8,3 L0,6 Z" fill="#d92d20"/>
    </marker>
    <marker id="arrow-blue" markerWidth="8" markerHeight="6" refX="8" refY="3" orient="auto">
      <path d="M0,0 L8,3 L0,6 Z" fill="#2563eb"/>
    </marker>
    <marker id="arrow-green" markerWidth="8" markerHeight="6" refX="8" refY="3" orient="auto">
      <path d="M0,0 L8,3 L0,6 Z" fill="#16a34a"/>
    </marker>
  </defs>

  <text x="850" y="40" text-anchor="middle" class="title">ox-jsdoc AST Memory Layout</text>
  <text x="850" y="64" text-anchor="middle" class="subtitle">Arena-oriented allocation model aligned with design/ast.md and oxc-style ownership</text>

  <g transform="translate(36, 88)">
    <rect x="0" y="0" width="640" height="96" fill="#ffffff" stroke="#d0d7e2" rx="8" ry="8"/>
    <text x="16" y="20" font-size="12" font-weight="700" fill="#475569">Pointer Legend</text>
    <line x1="20" y1="46" x2="62" y2="46" class="ptr-box" marker-end="url(#arrow-red)"/>
    <text x="70" y="50" font-size="11" fill="#334155">Box&lt;'a, T&gt; arena pointer</text>
    <line x1="280" y1="46" x2="322" y2="46" class="ptr-vec" marker-end="url(#arrow-blue)"/>
    <text x="330" y="50" font-size="11" fill="#334155">Vec&lt;'a, T&gt; backing storage</text>
    <line x1="20" y1="72" x2="62" y2="72" class="ptr-str" marker-end="url(#arrow-green)"/>
    <text x="70" y="76" font-size="11" fill="#334155">&amp;'a str slice into source text</text>
  </g>

  <line x1="36" y1="192" x2="1664" y2="192" class="section-line"/>
  <text x="46" y="218" class="section-label">1. Source Storage</text>

  <g transform="translate(46, 242)">
    <rect class="source-box" x="0" y="0" width="1608" height="82"/>
    <text x="16" y="22" class="addr">source buffer 0x7000_0000</text>
    <text x="16" y="46" class="mono" font-size="11" fill="#334155">"/** Find a user.\n * See {@link UserService} for details.\n * @param {string|number} id - The user ID\n * ... */"</text>
    <text x="16" y="66" class="annotation">Caller-owned source is separate from arena; all Text / Identifier / Variation string data are zero-copy slices.</text>
  </g>

  <line x1="36" y1="360" x2="1664" y2="360" class="section-line"/>
  <text x="46" y="386" class="section-label">2. Arena Allocation Overview</text>

  <rect class="arena-bg" x="46" y="410" width="940" height="1960"/>
  <text x="68" y="438" font-size="15" font-weight="700" fill="#475569">Bump Arena</text>
  <text x="68" y="456" class="addr">Sequential alloc() calls; every AST node stores Span and is dropped together when arena is freed.</text>

  <g transform="translate(76, 496)">
    <text x="0" y="-8" class="addr">0xA000_0000  alloc #1</text>
    <rect class="node-root" x="0" y="0" width="610" height="66"/>
    <text x="16" y="20" class="box-title-dark mono">JSDocComment</text>
    <text x="16" y="40" class="mono small" fill="#cbd5e1">span + description: Box&lt;Description&gt; → 0xA000_0100</text>
    <text x="16" y="56" class="mono small" fill="#93c5fd">tags: Vec&lt;BlockTag&gt; → 0xA000_0040  len=6</text>
  </g>

  <g transform="translate(76, 600)">
    <text x="0" y="-8" class="addr">0xA000_0040  alloc #2</text>
    <rect class="node-vec" x="0" y="0" width="610" height="116"/>
    <text x="16" y="20" class="box-title mono">Vec&lt;BlockTag&gt; backing</text>
    <text x="16" y="42" class="field-val">[0] @param      tag_name + body(Box) + raw_body(Box)</text>
    <text x="16" y="58" class="field-val">[1] @param      tag_name + body(Box) + raw_body(Box)</text>
    <text x="16" y="74" class="field-val">[2] @returns    tag_name + body(Box)</text>
    <text x="16" y="90" class="field-val">[3] @throws     tag_name + body(Box)</text>
    <text x="16" y="106" class="field-val">[4] @since      tag_name + body(Box) + raw_body(Box)</text>
  </g>
  <path d="M 516,562 L 516,592" class="ptr-vec" marker-end="url(#arrow-blue)"/>

  <g transform="translate(76, 760)">
    <text x="0" y="-8" class="addr">0xA000_0100  alloc #3</text>
    <rect class="node-desc" x="0" y="0" width="610" height="56"/>
    <text x="16" y="20" class="box-title mono">Description</text>
    <text x="16" y="40" class="field-val">parts: Vec&lt;DescriptionPart&gt; → 0xA000_0120  len=3</text>
  </g>
  <path d="M 270,562 C 270,614 170,684 240,752" class="ptr-box" marker-end="url(#arrow-red)"/>

  <g transform="translate(76, 856)">
    <text x="0" y="-8" class="addr">0xA000_0120  alloc #4</text>
    <rect class="node-vec" x="0" y="0" width="610" height="58"/>
    <text x="16" y="22" class="box-title mono">Vec&lt;DescriptionPart&gt; backing</text>
    <text x="16" y="42" class="field-val">Text(Box→0xA000_0160)  InlineTag(Box→0xA000_01A0)  Text(Box→0xA000_0220)</text>
  </g>
  <path d="M 404,816 L 404,848" class="ptr-vec" marker-end="url(#arrow-blue)"/>

  <g transform="translate(76, 954)">
    <text x="0" y="-8" class="addr">0xA000_0160  alloc #5</text>
    <rect class="node-name" x="0" y="0" width="610" height="58"/>
    <text x="16" y="22" class="box-title mono">Text</text>
    <text x="16" y="42" class="field-val">value: &amp;'a str → source[4..24]   "Find a user.\nSee "</text>
  </g>
  <path d="M 150,914 L 150,946" class="ptr-box" marker-end="url(#arrow-red)"/>
  <path d="M 686,982 L 804,982 L 804,282" class="ptr-str" marker-end="url(#arrow-green)"/>

  <g transform="translate(76, 1052)">
    <text x="0" y="-8" class="addr">0xA000_01A0  alloc #6</text>
    <rect class="node-inline" x="0" y="0" width="610" height="72"/>
    <text x="16" y="20" class="box-title mono">InlineTag</text>
    <text x="16" y="40" class="field-val">tag_name: "link"</text>
    <text x="16" y="56" class="field-val">body: Link(Box&lt;InlineLinkBody&gt; → 0xA000_01E0)</text>
  </g>
  <path d="M 356,914 L 356,1044" class="ptr-box" marker-end="url(#arrow-red)"/>

  <g transform="translate(76, 1158)">
    <text x="0" y="-8" class="addr">0xA000_01E0  alloc #7</text>
    <rect class="node-inline" x="0" y="0" width="610" height="72"/>
    <text x="16" y="20" class="box-title mono">InlineLinkBody</text>
    <text x="16" y="40" class="field-val">target: NamePath(Box&lt;NamePathLike&gt; → 0xA000_0210)</text>
    <text x="16" y="56" class="field-val">text: None</text>
  </g>
  <path d="M 366,1124 L 366,1150" class="ptr-box" marker-end="url(#arrow-red)"/>

  <g transform="translate(76, 1264)">
    <text x="0" y="-8" class="addr">0xA000_0210  alloc #8</text>
    <rect class="node-name" x="0" y="0" width="610" height="90"/>
    <text x="16" y="20" class="box-title mono">NamePathLike</text>
    <text x="16" y="40" class="field-val">namespace: None</text>
    <text x="16" y="56" class="field-val">segments: Vec&lt;NamePathComponent&gt; → 0xA000_0240  len=1</text>
    <text x="16" y="72" class="field-val">variation: None   trailing_connector: None</text>
  </g>
  <path d="M 376,1230 L 376,1256" class="ptr-box" marker-end="url(#arrow-red)"/>

  <g transform="translate(76, 1394)">
    <text x="0" y="-8" class="addr">0xA000_0240  alloc #9</text>
    <rect class="node-vec" x="0" y="0" width="610" height="58"/>
    <text x="16" y="22" class="box-title mono">Vec&lt;NamePathComponent&gt; backing</text>
    <text x="16" y="42" class="field-val">[0] separator=None, segment=Name(Identifier("UserService"))</text>
  </g>
  <path d="M 420,1354 L 420,1386" class="ptr-vec" marker-end="url(#arrow-blue)"/>

  <g transform="translate(76, 1492)">
    <text x="0" y="-8" class="addr">0xA000_0280  alloc #10</text>
    <rect class="node-name" x="0" y="0" width="610" height="58"/>
    <text x="16" y="22" class="box-title mono">Text</text>
    <text x="16" y="42" class="field-val">value: &amp;'a str → source[46..58]   " for details."</text>
  </g>
  <path d="M 610,914 L 610,1484" class="ptr-box" marker-end="url(#arrow-red)"/>

  <g transform="translate(76, 1598)">
    <text x="0" y="-8" class="addr">0xA000_0300  allocs #11-#24   tags[0] @param</text>
    <rect class="node-tag" x="0" y="0" width="610" height="222"/>
    <text x="16" y="22" class="box-title mono">BlockTag + GenericTagBody</text>
    <text x="16" y="46" class="field-val">BlockTag.tag_name = "param"</text>
    <text x="16" y="62" class="field-val">BlockTag.body: Box&lt;BlockTagBody::Generic&gt;</text>
    <text x="16" y="78" class="field-val">BlockTag.raw_body: Box&lt;Text&gt;   preserves raw tail for recovery/validation</text>
    <text x="16" y="104" class="field-val">GenericTagBody.type_expression → TypeExpression(Union)</text>
    <text x="16" y="120" class="field-val">GenericTagBody.value → TagValueToken::ParameterName</text>
    <text x="16" y="136" class="field-val">GenericTagBody.separator = Dash</text>
    <text x="16" y="152" class="field-val">GenericTagBody.description → Description/Text("The user ID")</text>
    <text x="16" y="178" class="field-val">RequiredParameterName.name → ParameterPath</text>
    <text x="16" y="194" class="field-val">ParameterPath.root = Identifier("id"), continuations.len = 0</text>
    <text x="16" y="210" class="field-val">TypeExpression.type_expr = Union([TypeName("string"), TypeName("number")])</text>
  </g>

  <g transform="translate(76, 1860)">
    <text x="0" y="-8" class="addr">0xA000_0600  allocs #25-#33   tags[1] @param</text>
    <rect class="node-tag" x="0" y="0" width="610" height="154"/>
    <text x="16" y="22" class="box-title mono">BlockTag + GenericTagBody</text>
    <text x="16" y="46" class="field-val">OptionalParameterName.name → ParameterPath("options")</text>
    <text x="16" y="62" class="field-val">OptionalParameterName.default_value → Text("{}")</text>
    <text x="16" y="88" class="field-val">TypeExpression.type_expr = TypeApplication</text>
    <text x="16" y="104" class="field-val">TypeApplication.callee = TypeName(NamePathLike("Object"))</text>
    <text x="16" y="120" class="field-val">TypeApplication.type_arguments = [TypeName("string"), AllLiteral]</text>
    <text x="16" y="136" class="field-val">has_dot = true for Object.&lt;string, *&gt;</text>
  </g>

  <g transform="translate(76, 2050)">
    <text x="0" y="-8" class="addr">0xA000_0780  allocs #34-#46   tags[2]..tags[5]</text>
    <rect class="node-tag" x="0" y="0" width="610" height="208"/>
    <text x="16" y="22" class="box-title mono">Remaining tags</text>
    <text x="16" y="46" class="field-val">@returns → GenericTagBody.type_expression = TypeApplication(Promise.&lt;User&gt;)</text>
    <text x="16" y="62" class="field-val">@throws  → GenericTagBody.type_expression = TypeName(NamePathLike("NotFoundError"))</text>
    <text x="16" y="78" class="field-val">@since   → GenericTagBody.value = RawToken(Text("2.0.0"))</text>
    <text x="16" y="94" class="field-val">@deprecated → GenericTagBody.description = Description</text>
    <text x="16" y="110" class="field-val">nested Description.parts = [Text, InlineTag(link findUserById), Text]</text>
    <text x="16" y="136" class="field-val">No dedicated node for @since or @deprecated: semantics stay in GenericTagBody</text>
    <text x="16" y="162" class="field-val">A lexically special tag such as @borrows would allocate</text>
    <text x="16" y="178" class="field-val">BlockTagBody::Borrows { source: NamePathLike, target: NamePathLike }</text>
    <text x="16" y="194" class="field-val">instead of GenericTagBody</text>
  </g>

  <g transform="translate(76, 2298)">
    <rect x="0" y="0" width="610" height="34" fill="#eef2ff" stroke="#6366f1" stroke-width="1.4" rx="6" ry="6"/>
    <text x="305" y="22" text-anchor="middle" class="mono" font-size="11" fill="#3730a3">bump_ptr → next free region; one arena free tears down the entire AST</text>
  </g>

  <g transform="translate(1060, 410)">
    <rect class="detail-bg" x="0" y="0" width="594" height="1310"/>
    <text x="20" y="28" class="section-label" font-size="17">3. Representative Struct Layout</text>
    <text x="20" y="52" class="annotation">Conceptual field ordering only. Exact byte size depends on allocator/runtime details.</text>

    <text x="20" y="98" class="mono" font-size="12" font-weight="700" fill="#334155">JSDocComment&lt;'a&gt;</text>
    <rect x="20" y="112" width="554" height="56" fill="#f8fafc" stroke="#cbd5e1" rx="6" ry="6"/>
    <text x="34" y="134" class="field-name">span: Span | description: Option&lt;Box&lt;Description&gt;&gt; | tags: Vec&lt;BlockTag&gt;</text>
    <text x="34" y="152" class="annotation">Root owns top-level description pointer and the block-tag vector header.</text>

    <text x="20" y="208" class="mono" font-size="12" font-weight="700" fill="#334155">BlockTag&lt;'a&gt;</text>
    <rect x="20" y="222" width="554" height="72" fill="#fff7ed" stroke="#fdba74" rx="6" ry="6"/>
    <text x="34" y="244" class="field-name">span | tag_name: TagName | body: Option&lt;Box&lt;BlockTagBody&gt;&gt;</text>
    <text x="34" y="262" class="field-name">raw_body: Option&lt;Box&lt;Text&gt;&gt;</text>
    <text x="34" y="280" class="annotation">`raw_body` is retained even when a parsed body exists.</text>

    <text x="20" y="334" class="mono" font-size="12" font-weight="700" fill="#334155">GenericTagBody&lt;'a&gt;</text>
    <rect x="20" y="348" width="554" height="90" fill="#fff7ed" stroke="#fdba74" rx="6" ry="6"/>
    <text x="34" y="370" class="field-name">span | type_expression: Option&lt;Box&lt;TypeExpression&gt;&gt;</text>
    <text x="34" y="388" class="field-name">value: Option&lt;Box&lt;TagValueToken&gt;&gt; | separator: Option&lt;Separator&gt;</text>
    <text x="34" y="406" class="field-name">description: Option&lt;Box&lt;Description&gt;&gt;</text>
    <text x="34" y="424" class="annotation">Most tags reduce to type? + value? + description?.</text>

    <text x="20" y="478" class="mono" font-size="12" font-weight="700" fill="#334155">NamePathLike&lt;'a&gt;</text>
    <rect x="20" y="492" width="554" height="90" fill="#eefbf3" stroke="#86efac" rx="6" ry="6"/>
    <text x="34" y="514" class="field-name">span | namespace: Option&lt;NamePathNamespace&gt;</text>
    <text x="34" y="532" class="field-name">segments: Vec&lt;NamePathComponent&gt; | variation: Option&lt;Box&lt;Variation&gt;&gt;</text>
    <text x="34" y="550" class="field-name">trailing_connector: Option&lt;NamePathSeparator&gt;</text>
    <text x="34" y="568" class="annotation">Shared substrate for link targets, type names, and borrows endpoints.</text>

    <text x="20" y="622" class="mono" font-size="12" font-weight="700" fill="#334155">ParameterPath&lt;'a&gt;</text>
    <rect x="20" y="636" width="554" height="72" fill="#eefbf3" stroke="#86efac" rx="6" ry="6"/>
    <text x="34" y="658" class="field-name">span | root: ParameterRoot | continuations: Vec&lt;ParameterContinuation&gt;</text>
    <text x="34" y="676" class="annotation">Dedicated param/property path syntax is not reused as general namepath.</text>

    <text x="20" y="752" class="mono" font-size="12" font-weight="700" fill="#334155">TypeExpression / TypeExpr&lt;'a&gt;</text>
    <rect x="20" y="766" width="554" height="108" fill="#faf5ff" stroke="#d8b4fe" rx="6" ry="6"/>
    <text x="34" y="788" class="field-name">TypeExpression { span, type_expr: TypeExpr }</text>
    <text x="34" y="806" class="field-name">TypeExpr variants include Name, Union, TypeApplication, Function, Record,</text>
    <text x="34" y="824" class="field-name">TypeQuery, IndexedAccess, Nullable, Optional, Variadic, ArrayShorthand ...</text>
    <text x="34" y="852" class="annotation">Expanded compared with the old diagram: TypeQuery and IndexedAccess now matter.</text>

    <text x="20" y="914" class="mono" font-size="12" font-weight="700" fill="#334155">TypeApplication&lt;'a&gt;</text>
    <rect x="20" y="928" width="554" height="72" fill="#faf5ff" stroke="#d8b4fe" rx="6" ry="6"/>
    <text x="34" y="950" class="field-name">span | callee: TypeExpr | type_arguments: Vec&lt;TypeExpr&gt; | has_dot: bool</text>
    <text x="34" y="968" class="annotation">No longer hard-coded to TypeName; callee can be any TypeExpr.</text>

    <text x="20" y="1042" class="mono" font-size="12" font-weight="700" fill="#334155">IndexedAccessType&lt;'a&gt;</text>
    <rect x="20" y="1056" width="554" height="72" fill="#faf5ff" stroke="#d8b4fe" rx="6" ry="6"/>
    <text x="34" y="1078" class="field-name">span | object_type: Box&lt;TypeExpr&gt; | index: Box&lt;IndexedAccessKey&gt;</text>
    <text x="34" y="1096" class="annotation">Supports forms like Parameters&lt;Foo&gt;[0] and T["x"].</text>

    <text x="20" y="1170" class="mono" font-size="12" font-weight="700" fill="#334155">RecordField / RecordFieldKey&lt;'a&gt;</text>
    <rect x="20" y="1184" width="554" height="94" fill="#faf5ff" stroke="#d8b4fe" rx="6" ry="6"/>
    <text x="34" y="1206" class="field-name">RecordField { span, key: RecordFieldKey, value: Option&lt;Box&lt;TypeExpr&gt;&gt; }</text>
    <text x="34" y="1224" class="field-name">RecordFieldKey = Identifier | StringLiteral | NumericLiteral | IndexSignature</text>
    <text x="34" y="1252" class="annotation">Replaces the older RecordFieldName-only model.</text>
  </g>

  <g transform="translate(1060, 1760)">
    <rect class="note-box" x="0" y="0" width="594" height="214"/>
    <text x="20" y="28" font-size="16" font-weight="700" fill="#92400e">4. Raw Transfer Notes</text>
    <text x="20" y="56" class="note-text">The AST is designed in an oxc-compatible direction:</text>
    <text x="20" y="76" class="note-text">arena allocation, #[repr(C)], and Span on every node.</text>
    <text x="20" y="104" class="note-text">However, raw transfer is still a future phase.</text>
    <text x="20" y="124" class="note-text">Vec backing layout is not yet treated as a stable JS ABI.</text>
    <text x="20" y="152" class="note-text">This diagram therefore shows ownership and pointer shape,</text>
    <text x="20" y="172" class="note-text">not a frozen cross-language binary contract.</text>
    <text x="20" y="200" class="note-text">Design goal: later raw-transfer adaptation without transport-only fields in the core AST.</text>
  </g>

  <g transform="translate(1060, 2060)">
    <rect class="detail-bg" x="0" y="0" width="594" height="500"/>
    <text x="20" y="28" class="section-label" font-size="17">5. Allocation Pattern by Node Kind</text>

    <rect x="20" y="56" width="554" height="88" fill="#fff7ed" stroke="#fdba74" rx="6" ry="6"/>
    <text x="34" y="80" class="box-title mono">GenericTagBody path</text>
    <text x="34" y="100" class="field-val">BlockTag → BlockTagBody::Generic</text>
    <text x="34" y="118" class="field-val">→ TypeExpression? / TagValueToken? / Description?</text>
    <text x="34" y="136" class="annotation">Most tags follow this shape.</text>

    <rect x="20" y="168" width="554" height="88" fill="#eefbf3" stroke="#86efac" rx="6" ry="6"/>
    <text x="34" y="192" class="box-title mono">NamePathLike path</text>
    <text x="34" y="212" class="field-val">NamePathLike → Vec&lt;NamePathComponent&gt;</text>
    <text x="34" y="230" class="field-val">→ segment payloads + optional Variation</text>
    <text x="34" y="248" class="annotation">Used by link targets, type names, @borrows, and some tag values.</text>

    <rect x="20" y="280" width="554" height="88" fill="#eefbf3" stroke="#86efac" rx="6" ry="6"/>
    <text x="34" y="304" class="box-title mono">ParameterPath path</text>
    <text x="34" y="324" class="field-val">TagParameterName → Required/Optional → ParameterPath</text>
    <text x="34" y="342" class="field-val">→ Vec&lt;ParameterContinuation&gt;</text>
    <text x="34" y="360" class="annotation">Separated from general namepath to preserve semantic role.</text>

    <rect x="20" y="392" width="554" height="98" fill="#faf5ff" stroke="#d8b4fe" rx="6" ry="6"/>
    <text x="34" y="416" class="box-title mono">TypeExpr path</text>
    <text x="34" y="436" class="field-val">TypeExpression → TypeExpr variant</text>
    <text x="34" y="454" class="field-val">→ Box children and Vec children depending on the variant</text>
    <text x="34" y="472" class="annotation">Union, TypeApplication, Function, Record, TypeQuery, and IndexedAccess allocate differently.</text>
  </g>
</svg>
