<svg xmlns="http://www.w3.org/2000/svg" viewBox="0 0 1400 2200" font-family="'Helvetica Neue', Arial, sans-serif" font-size="13">
  <defs>
    <style>
      .title { font-size: 22px; font-weight: bold; fill: #1a1a2e; }
      .subtitle { font-size: 14px; fill: #555; }
      .node-root rect { fill: #1a1a2e; rx: 8; ry: 8; }
      .node-root text { fill: #fff; font-weight: bold; font-size: 15px; }
      .node-struct rect { fill: #e8f4f8; stroke: #2196F3; stroke-width: 1.5; rx: 6; ry: 6; }
      .node-struct .node-title { fill: #0d47a1; font-weight: bold; font-size: 14px; }
      .node-struct .node-field { fill: #333; font-size: 12px; }
      .node-struct .node-type { fill: #1565c0; font-size: 12px; font-style: italic; }
      .node-enum rect { fill: #fff3e0; stroke: #ff9800; stroke-width: 1.5; rx: 6; ry: 6; }
      .node-enum .node-title { fill: #e65100; font-weight: bold; font-size: 14px; }
      .node-enum .variant { fill: #bf360c; font-size: 12px; }
      .node-leaf rect { fill: #e8f5e9; stroke: #4caf50; stroke-width: 1.5; rx: 6; ry: 6; }
      .node-leaf .node-title { fill: #1b5e20; font-weight: bold; font-size: 14px; }
      .node-leaf .node-field { fill: #333; font-size: 12px; }
      .edge { stroke: #666; stroke-width: 1.5; fill: none; }
      .edge-optional { stroke: #999; stroke-width: 1.2; fill: none; stroke-dasharray: 6,3; }
      .edge-vec { stroke: #2196F3; stroke-width: 1.8; fill: none; }
      .legend rect { rx: 4; ry: 4; }
      .legend text { font-size: 11px; fill: #333; }
      .section-label { font-size: 16px; font-weight: bold; fill: #37474f; }
      .section-line { stroke: #cfd8dc; stroke-width: 1; stroke-dasharray: 4,4; }
      .annotation { font-size: 11px; fill: #777; font-style: italic; }
    </style>
    <marker id="arrow" markerWidth="8" markerHeight="6" refX="8" refY="3" orient="auto">
      <path d="M0,0 L8,3 L0,6 Z" fill="#666"/>
    </marker>
    <marker id="arrow-blue" markerWidth="8" markerHeight="6" refX="8" refY="3" orient="auto">
      <path d="M0,0 L8,3 L0,6 Z" fill="#2196F3"/>
    </marker>
    <marker id="arrow-dash" markerWidth="8" markerHeight="6" refX="8" refY="3" orient="auto">
      <path d="M0,0 L8,3 L0,6 Z" fill="#999"/>
    </marker>
  </defs>

  <!-- Title -->
  <text x="700" y="40" text-anchor="middle" class="title">ox-jsdoc AST Structure</text>
  <text x="700" y="62" text-anchor="middle" class="subtitle">AST node structure for JSDoc comments based on design/ast.md</text>

  <!-- Legend -->
  <g transform="translate(30, 80)">
    <rect x="0" y="0" width="340" height="90" fill="#fafafa" stroke="#ddd" rx="6" ry="6"/>
    <text x="170" y="18" text-anchor="middle" font-weight="bold" font-size="12" fill="#555">Legend</text>
    <rect class="legend" x="10" y="28" width="16" height="12" fill="#1a1a2e"/>
    <text class="legend" x="32" y="39">Root node</text>
    <rect class="legend" x="120" y="28" width="16" height="12" fill="#e8f4f8" stroke="#2196F3" stroke-width="1"/>
    <text class="legend" x="142" y="39">Struct node</text>
    <rect class="legend" x="240" y="28" width="16" height="12" fill="#fff3e0" stroke="#ff9800" stroke-width="1"/>
    <text class="legend" x="262" y="39">Enum node</text>
    <rect class="legend" x="10" y="48" width="16" height="12" fill="#e8f5e9" stroke="#4caf50" stroke-width="1"/>
    <text class="legend" x="32" y="59">Leaf node</text>
    <line x1="120" y1="56" x2="160" y2="56" stroke="#666" stroke-width="1.5" marker-end="url(#arrow)"/>
    <text class="legend" x="166" y="59">Required</text>
    <line x1="210" y1="56" x2="250" y2="56" stroke="#999" stroke-width="1.2" stroke-dasharray="6,3" marker-end="url(#arrow-dash)"/>
    <text class="legend" x="256" y="59">Optional (Option)</text>
    <line x1="10" y1="76" x2="50" y2="76" stroke="#2196F3" stroke-width="1.8" marker-end="url(#arrow-blue)"/>
    <text class="legend" x="56" y="79">Vec (0..N)</text>
    <text class="legend" x="150" y="79" fill="#777" font-style="italic">All nodes have Span</text>
  </g>

  <!-- ===================================================================== -->
  <!-- Section 1: Top Level -->
  <!-- ===================================================================== -->
  <line x1="30" y1="195" x2="1370" y2="195" class="section-line"/>
  <text x="40" y="215" class="section-label">1. Top Level</text>

  <!-- JSDocComment (root) -->
  <g class="node-root" transform="translate(550, 230)">
    <rect x="0" y="0" width="300" height="70"/>
    <text x="150" y="25" text-anchor="middle">JSDocComment</text>
    <text x="150" y="45" text-anchor="middle" font-size="11" fill="#aaa">Parse result of /** ... */</text>
    <text x="150" y="60" text-anchor="middle" font-size="11" fill="#aaa">description? + tags[]</text>
  </g>

  <!-- ===================================================================== -->
  <!-- Section 2: Description + BlockTag -->
  <!-- ===================================================================== -->
  <line x1="30" y1="325" x2="1370" y2="325" class="section-line"/>
  <text x="40" y="345" class="section-label">2. Comment Body</text>

  <!-- JSDocComment -> Description (optional) -->
  <line x1="620" y1="300" x2="300" y2="380" class="edge-optional" marker-end="url(#arrow-dash)"/>
  <text x="430" y="340" class="annotation">description?</text>

  <!-- JSDocComment -> BlockTag[] -->
  <line x1="780" y1="300" x2="1050" y2="380" class="edge-vec" marker-end="url(#arrow-blue)"/>
  <text x="930" y="340" class="annotation">tags: Vec</text>

  <!-- Description -->
  <g class="node-struct" transform="translate(120, 380)">
    <rect x="0" y="0" width="360" height="65"/>
    <text x="180" y="22" text-anchor="middle" class="node-title">Description</text>
    <text x="15" y="42" class="node-field">parts:</text>
    <text x="55" y="42" class="node-type">Vec&lt;DescriptionPart&gt;</text>
    <text x="15" y="57" class="node-field" fill="#777" font-style="italic">Interleaved text and inline tags</text>
  </g>

  <!-- BlockTag -->
  <g class="node-struct" transform="translate(870, 380)">
    <rect x="0" y="0" width="360" height="95"/>
    <text x="180" y="22" text-anchor="middle" class="node-title">BlockTag</text>
    <text x="15" y="42" class="node-field">tag_name:</text>
    <text x="85" y="42" class="node-type">TagName</text>
    <text x="15" y="57" class="node-field">type_expression:</text>
    <text x="125" y="57" class="node-type">Option&lt;TypeExpression&gt;</text>
    <text x="15" y="72" class="node-field">name:</text>
    <text x="55" y="72" class="node-type">Option&lt;TagParameterName&gt;</text>
    <text x="15" y="87" class="node-field">description:</text>
    <text x="95" y="87" class="node-type">Option&lt;Description&gt;</text>
  </g>

  <!-- ===================================================================== -->
  <!-- Section 3: DescriptionPart (enum) -->
  <!-- ===================================================================== -->
  <line x1="30" y1="500" x2="1370" y2="500" class="section-line"/>
  <text x="40" y="520" class="section-label">3. Description Parts</text>

  <!-- Description -> DescriptionPart -->
  <line x1="300" y1="445" x2="300" y2="540" class="edge-vec" marker-end="url(#arrow-blue)"/>

  <!-- DescriptionPart enum -->
  <g class="node-enum" transform="translate(180, 540)">
    <rect x="0" y="0" width="240" height="55"/>
    <text x="120" y="20" text-anchor="middle" class="node-title">DescriptionPart</text>
    <text x="15" y="38" class="variant">Text(Text)</text>
    <text x="15" y="51" class="variant">InlineTag(InlineTag)</text>
  </g>

  <!-- Text leaf -->
  <g class="node-leaf" transform="translate(30, 630)">
    <rect x="0" y="0" width="180" height="55"/>
    <text x="90" y="20" text-anchor="middle" class="node-title">Text</text>
    <text x="15" y="40" class="node-field">value:</text>
    <text x="55" y="40" class="node-type">&amp;'a str</text>
  </g>

  <!-- DescriptionPart -> Text -->
  <line x1="240" y1="595" x2="140" y2="630" class="edge" marker-end="url(#arrow)"/>

  <!-- InlineTag -->
  <g class="node-struct" transform="translate(280, 630)">
    <rect x="0" y="0" width="280" height="70"/>
    <text x="140" y="20" text-anchor="middle" class="node-title">InlineTag</text>
    <text x="15" y="40" class="node-field">tag_name:</text>
    <text x="85" y="40" class="node-type">TagName</text>
    <text x="15" y="57" class="node-field">body:</text>
    <text x="50" y="57" class="node-type">InlineTagBody</text>
  </g>

  <!-- DescriptionPart -> InlineTag -->
  <line x1="340" y1="595" x2="400" y2="630" class="edge" marker-end="url(#arrow)"/>

  <!-- InlineTagBody enum -->
  <g class="node-enum" transform="translate(280, 730)">
    <rect x="0" y="0" width="280" height="65"/>
    <text x="140" y="20" text-anchor="middle" class="node-title">InlineTagBody</text>
    <text x="15" y="38" class="variant">Link(InlineLinkBody)</text>
    <text x="15" y="51" class="variant">Type(TypeExpression) | Unknown(Text)</text>
  </g>

  <!-- InlineTag -> InlineTagBody -->
  <line x1="420" y1="700" x2="420" y2="730" class="edge" marker-end="url(#arrow)"/>

  <!-- InlineLinkBody -->
  <g class="node-struct" transform="translate(60, 830)">
    <rect x="0" y="0" width="260" height="65"/>
    <text x="130" y="20" text-anchor="middle" class="node-title">InlineLinkBody</text>
    <text x="15" y="40" class="node-field">target:</text>
    <text x="60" y="40" class="node-type">LinkTarget</text>
    <text x="15" y="57" class="node-field">text:</text>
    <text x="45" y="57" class="node-type">Option&lt;Text&gt;</text>
  </g>

  <!-- InlineTagBody -> InlineLinkBody -->
  <line x1="350" y1="795" x2="230" y2="830" class="edge" marker-end="url(#arrow)"/>

  <!-- LinkTarget enum -->
  <g class="node-enum" transform="translate(60, 925)">
    <rect x="0" y="0" width="260" height="55"/>
    <text x="130" y="20" text-anchor="middle" class="node-title">LinkTarget</text>
    <text x="15" y="38" class="variant">NamePath(NamePath)</text>
    <text x="15" y="51" class="variant">URL(Text)</text>
  </g>

  <!-- InlineLinkBody -> LinkTarget -->
  <line x1="190" y1="895" x2="190" y2="925" class="edge" marker-end="url(#arrow)"/>

  <!-- ===================================================================== -->
  <!-- Section 4: TagName (leaf) -->
  <!-- ===================================================================== -->

  <!-- TagName leaf -->
  <g class="node-leaf" transform="translate(620, 530)">
    <rect x="0" y="0" width="180" height="55"/>
    <text x="90" y="20" text-anchor="middle" class="node-title">TagName</text>
    <text x="15" y="40" class="node-field">value:</text>
    <text x="55" y="40" class="node-type">&amp;'a str</text>
  </g>

  <!-- BlockTag -> TagName -->
  <line x1="960" y1="475" x2="750" y2="530" class="edge" marker-end="url(#arrow)"/>
  <text x="830" y="500" class="annotation">tag_name</text>

  <!-- ===================================================================== -->
  <!-- Section 5: TagParameterName -->
  <!-- ===================================================================== -->
  <line x1="30" y1="1010" x2="1370" y2="1010" class="section-line"/>
  <text x="40" y="1030" class="section-label">4. Parameter Name</text>

  <!-- BlockTag -> TagParameterName (optional) -->
  <line x1="1050" y1="475" x2="1050" y2="1045" class="edge-optional" marker-end="url(#arrow-dash)"/>
  <text x="1060" y="760" class="annotation">name?</text>

  <!-- TagParameterName enum -->
  <g class="node-enum" transform="translate(900, 1045)">
    <rect x="0" y="0" width="300" height="55"/>
    <text x="150" y="20" text-anchor="middle" class="node-title">TagParameterName</text>
    <text x="15" y="38" class="variant">Required(RequiredParameterName)</text>
    <text x="15" y="51" class="variant">Optional(OptionalParameterName)</text>
  </g>

  <!-- RequiredParameterName -->
  <g class="node-struct" transform="translate(820, 1140)">
    <rect x="0" y="0" width="210" height="50"/>
    <text x="105" y="20" text-anchor="middle" class="node-title">RequiredParameterName</text>
    <text x="15" y="40" class="node-field">name:</text>
    <text x="55" y="40" class="node-type">NamePath</text>
  </g>

  <!-- OptionalParameterName -->
  <g class="node-struct" transform="translate(1060, 1140)">
    <rect x="0" y="0" width="270" height="65"/>
    <text x="135" y="20" text-anchor="middle" class="node-title">OptionalParameterName</text>
    <text x="15" y="40" class="node-field">name:</text>
    <text x="55" y="40" class="node-type">NamePath</text>
    <text x="15" y="55" class="node-field">default_value:</text>
    <text x="105" y="55" class="node-type">Option&lt;Text&gt;</text>
  </g>

  <!-- TagParameterName -> Required -->
  <line x1="990" y1="1100" x2="940" y2="1140" class="edge" marker-end="url(#arrow)"/>
  <!-- TagParameterName -> Optional -->
  <line x1="1100" y1="1100" x2="1150" y2="1140" class="edge" marker-end="url(#arrow)"/>

  <!-- ===================================================================== -->
  <!-- Section 6: NamePath -->
  <!-- ===================================================================== -->
  <line x1="30" y1="1230" x2="1370" y2="1230" class="section-line"/>
  <text x="40" y="1250" class="section-label">5. Name Path</text>

  <!-- NamePath -->
  <g class="node-struct" transform="translate(820, 1260)">
    <rect x="0" y="0" width="280" height="50"/>
    <text x="140" y="20" text-anchor="middle" class="node-title">NamePath</text>
    <text x="15" y="40" class="node-field">segments:</text>
    <text x="80" y="40" class="node-type">Vec&lt;NamePathComponent&gt;</text>
  </g>

  <!-- RequiredParameterName -> NamePath -->
  <line x1="925" y1="1190" x2="960" y2="1260" class="edge" marker-end="url(#arrow)"/>

  <!-- NamePathComponent -->
  <g class="node-struct" transform="translate(620, 1340)">
    <rect x="0" y="0" width="290" height="65"/>
    <text x="145" y="20" text-anchor="middle" class="node-title">NamePathComponent</text>
    <text x="15" y="40" class="node-field">operator:</text>
    <text x="75" y="40" class="node-type">Option&lt;ScopeOperator&gt;</text>
    <text x="15" y="55" class="node-field">segment:</text>
    <text x="75" y="55" class="node-type">NamePathSegment</text>
  </g>

  <!-- NamePath -> NamePathComponent[] -->
  <line x1="920" y1="1310" x2="830" y2="1340" class="edge-vec" marker-end="url(#arrow-blue)"/>

  <!-- ScopeOperator -->
  <g class="node-enum" transform="translate(400, 1440)">
    <rect x="0" y="0" width="200" height="65"/>
    <text x="100" y="20" text-anchor="middle" class="node-title">ScopeOperator</text>
    <text x="15" y="38" class="variant">Dot (.)</text>
    <text x="15" y="51" class="variant">Hash (#) | Tilde (~)</text>
  </g>

  <!-- NamePathSegment -->
  <g class="node-enum" transform="translate(680, 1440)">
    <rect x="0" y="0" width="270" height="80"/>
    <text x="135" y="20" text-anchor="middle" class="node-title">NamePathSegment</text>
    <text x="15" y="38" class="variant">Name(Identifier)</text>
    <text x="15" y="51" class="variant">StringLiteral(Text)</text>
    <text x="15" y="64" class="variant">Event(Identifier)</text>
    <text x="15" y="77" class="variant">Module(Identifier)</text>
  </g>

  <!-- NamePathComponent -> ScopeOperator -->
  <line x1="700" y1="1405" x2="540" y2="1440" class="edge-optional" marker-end="url(#arrow-dash)"/>
  <!-- NamePathComponent -> NamePathSegment -->
  <line x1="800" y1="1405" x2="815" y2="1440" class="edge" marker-end="url(#arrow)"/>

  <!-- Identifier leaf -->
  <g class="node-leaf" transform="translate(1020, 1440)">
    <rect x="0" y="0" width="180" height="55"/>
    <text x="90" y="20" text-anchor="middle" class="node-title">Identifier</text>
    <text x="15" y="40" class="node-field">name:</text>
    <text x="55" y="40" class="node-type">&amp;'a str</text>
  </g>

  <!-- NamePathSegment -> Identifier -->
  <line x1="950" y1="1480" x2="1020" y2="1470" class="edge" marker-end="url(#arrow)"/>

  <!-- ===================================================================== -->
  <!-- Section 7: TypeExpression -->
  <!-- ===================================================================== -->
  <line x1="30" y1="1555" x2="1370" y2="1555" class="section-line"/>
  <text x="40" y="1575" class="section-label">6. Type Expression</text>

  <!-- BlockTag -> TypeExpression (optional) -->
  <line x1="1150" y1="475" x2="1300" y2="580" class="edge-optional" marker-end="url(#arrow-dash)"/>
  <text x="1240" y="520" class="annotation">type_expression?</text>

  <!-- TypeExpression -->
  <g class="node-struct" transform="translate(530, 1585)">
    <rect x="0" y="0" width="280" height="55"/>
    <text x="140" y="22" text-anchor="middle" class="node-title">TypeExpression</text>
    <text x="15" y="42" class="node-field">type_expr:</text>
    <text x="85" y="42" class="node-type">TypeExpr</text>
    <text x="15" y="52" class="node-field" fill="#777" font-size="10" font-style="italic">Wrapper including { } braces</text>
  </g>

  <!-- TypeExpr enum (main) -->
  <g class="node-enum" transform="translate(350, 1680)">
    <rect x="0" y="0" width="640" height="180"/>
    <text x="320" y="22" text-anchor="middle" class="node-title">TypeExpr  (17 variants)</text>

    <!-- Literals -->
    <text x="15" y="45" class="variant" font-weight="bold" fill="#555">Literals:</text>
    <text x="15" y="60" class="variant">AllLiteral(*) | NullLiteral | UndefinedLiteral | UnknownLiteral(?)</text>
    <text x="15" y="75" class="variant">StringLiteral('click') | NumericLiteral(42)</text>

    <!-- Name -->
    <text x="15" y="95" class="variant" font-weight="bold" fill="#555">Name:</text>
    <text x="15" y="110" class="variant">Name(TypeName)</text>

    <!-- Composite -->
    <text x="15" y="130" class="variant" font-weight="bold" fill="#555">Composite types:</text>
    <text x="15" y="145" class="variant">Union(UnionType) | TypeApplication(TypeApplication)</text>
    <text x="15" y="160" class="variant">Function(FunctionType) | Record(RecordType)</text>

    <!-- Modifiers -->
    <text x="340" y="95" class="variant" font-weight="bold" fill="#555">Modified types:</text>
    <text x="340" y="110" class="variant">Nullable(?T) | NonNullable(!T)</text>
    <text x="340" y="130" class="variant">Optional(T=) | Variadic(...T)</text>
    <text x="340" y="145" class="variant">ArrayShorthand(T[])</text>
    <text x="340" y="165" class="variant">Parenthesized((T))</text>
  </g>

  <!-- TypeExpression -> TypeExpr -->
  <line x1="670" y1="1640" x2="670" y2="1680" class="edge" marker-end="url(#arrow)"/>

  <!-- ===================================================================== -->
  <!-- Section 8: TypeExpr children -->
  <!-- ===================================================================== -->
  <line x1="30" y1="1885" x2="1370" y2="1885" class="section-line"/>
  <text x="40" y="1905" class="section-label">7. Type Expression Children</text>

  <!-- TypeName -->
  <g class="node-struct" transform="translate(30, 1920)">
    <rect x="0" y="0" width="230" height="65"/>
    <text x="115" y="20" text-anchor="middle" class="node-title">TypeName</text>
    <text x="15" y="40" class="node-field">parts:</text>
    <text x="55" y="40" class="node-type">Vec&lt;Identifier&gt;</text>
    <text x="15" y="55" class="node-field">is_module:</text>
    <text x="85" y="55" class="node-type">bool</text>
  </g>

  <!-- UnionType -->
  <g class="node-struct" transform="translate(290, 1920)">
    <rect x="0" y="0" width="230" height="50"/>
    <text x="115" y="20" text-anchor="middle" class="node-title">UnionType</text>
    <text x="15" y="40" class="node-field">elements:</text>
    <text x="80" y="40" class="node-type">Vec&lt;TypeExpr&gt;</text>
  </g>

  <!-- TypeApplication -->
  <g class="node-struct" transform="translate(550, 1920)">
    <rect x="0" y="0" width="270" height="65"/>
    <text x="135" y="20" text-anchor="middle" class="node-title">TypeApplication</text>
    <text x="15" y="40" class="node-field">name:</text>
    <text x="55" y="40" class="node-type">TypeName</text>
    <text x="15" y="55" class="node-field">type_arguments:</text>
    <text x="115" y="55" class="node-type">Vec&lt;TypeExpr&gt;</text>
  </g>

  <!-- FunctionType -->
  <g class="node-struct" transform="translate(850, 1920)">
    <rect x="0" y="0" width="250" height="80"/>
    <text x="125" y="20" text-anchor="middle" class="node-title">FunctionType</text>
    <text x="15" y="40" class="node-field">params:</text>
    <text x="65" y="40" class="node-type">Option&lt;Vec&lt;FunctionParam&gt;&gt;</text>
    <text x="15" y="55" class="node-field">return_type:</text>
    <text x="95" y="55" class="node-type">Option&lt;TypeExpr&gt;</text>
    <text x="15" y="70" class="node-field">this_type / constructor_type</text>
  </g>

  <!-- RecordType -->
  <g class="node-struct" transform="translate(1130, 1920)">
    <rect x="0" y="0" width="240" height="50"/>
    <text x="120" y="20" text-anchor="middle" class="node-title">RecordType</text>
    <text x="15" y="40" class="node-field">fields:</text>
    <text x="55" y="40" class="node-type">Vec&lt;RecordField&gt;</text>
  </g>

  <!-- TypeExpr -> children -->
  <line x1="480" y1="1860" x2="145" y2="1920" class="edge" marker-end="url(#arrow)"/>
  <line x1="550" y1="1860" x2="405" y2="1920" class="edge" marker-end="url(#arrow)"/>
  <line x1="650" y1="1860" x2="685" y2="1920" class="edge" marker-end="url(#arrow)"/>
  <line x1="750" y1="1860" x2="975" y2="1920" class="edge" marker-end="url(#arrow)"/>
  <line x1="830" y1="1860" x2="1250" y2="1920" class="edge" marker-end="url(#arrow)"/>

  <!-- Modified types (summary) -->
  <g class="node-struct" transform="translate(30, 2030)">
    <rect x="0" y="0" width="760" height="55"/>
    <text x="380" y="20" text-anchor="middle" class="node-title">Modified Types (common structure: span + inner TypeExpr)</text>
    <text x="15" y="42" class="node-field">NullableType(?T) | NonNullableType(!T) | OptionalType(T=) | VariadicType(...T) | ArrayShorthandType(T[]) | ParenthesizedType((T))</text>
  </g>

  <!-- RecordField -->
  <g class="node-struct" transform="translate(1030, 2030)">
    <rect x="0" y="0" width="290" height="65"/>
    <text x="145" y="20" text-anchor="middle" class="node-title">RecordField</text>
    <text x="15" y="40" class="node-field">name:</text>
    <text x="55" y="40" class="node-type">RecordFieldName</text>
    <text x="15" y="55" class="node-field">value:</text>
    <text x="55" y="55" class="node-type">Option&lt;TypeExpr&gt;</text>
  </g>

  <!-- RecordType -> RecordField -->
  <line x1="1250" y1="1970" x2="1175" y2="2030" class="edge-vec" marker-end="url(#arrow-blue)"/>

  <!-- FunctionParam enum -->
  <g class="node-enum" transform="translate(850, 2030)">
    <rect x="0" y="0" width="160" height="55"/>
    <text x="80" y="20" text-anchor="middle" class="node-title">FunctionParam</text>
    <text x="15" y="38" class="variant">Type(TypeExpr)</text>
    <text x="15" y="51" class="variant">Rest(TypeExpr)</text>
  </g>

  <!-- FunctionType -> FunctionParam -->
  <line x1="975" y1="2000" x2="930" y2="2030" class="edge-vec" marker-end="url(#arrow-blue)"/>

  <!-- Recursive annotation -->
  <g transform="translate(30, 2120)">
    <rect x="0" y="0" width="700" height="50" fill="#f5f5f5" stroke="#ccc" rx="6" ry="6"/>
    <text x="350" y="20" text-anchor="middle" font-size="13" fill="#555" font-weight="bold">Recursive structure: TypeExpr variants contain nested TypeExpr nodes (tree)</text>
    <text x="350" y="38" text-anchor="middle" font-size="12" fill="#777">e.g. Nullable(?T) -> TypeExpr | Union(T|U) -> Vec&lt;TypeExpr&gt; | TypeApplication(Array.&lt;T&gt;) -> Vec&lt;TypeExpr&gt;</text>
  </g>
</svg>
